<svg width="22" height="25" viewBox="0 0 22 25" fill="none" xmlns="http://www.w3.org/2000/svg">
<path d="M16.787 5C16.787 2.2425 14.096 0 10.787 0C7.478 0 4.787 2.2425 4.787 5C4.787 7.7575 7.478 10 10.787 10C14.096 10 16.787 7.7575 16.787 5ZM6.787 5C6.787 3.16167 8.581 1.66667 10.787 1.66667C12.993 1.66667 14.787 3.16167 14.787 5C14.787 6.83833 12.993 8.33333 10.787 8.33333C8.581 8.33333 6.787 6.83833 6.787 5ZM0 20.1142V22.5C0 23.8783 1.346 25 3 25H18.574C20.228 25 21.574 23.8783 21.574 22.5V20.1142C21.574 15.1567 16.735 11.125 10.787 11.125C4.839 11.125 0 15.1567 0 20.1142ZM10.787 12.7917C15.633 12.7917 19.574 16.0758 19.574 20.1142V22.5C19.574 22.9592 19.126 23.3333 18.574 23.3333H3C2.448 23.3333 2 22.9592 2 22.5V20.1142C2 16.0758 5.941 12.7917 10.787 12.7917Z" fill="white"/>
</svg>
